PathFileType	4	(X/Y/Z)	c:/Users/goper/Files/vsCode/490R/osim_files/C04/C04_Slow_03.trc
DataRate	CameraRate	NumFrames	NumMarkers	Units                	OrigDataRate	OrigDataStartFrame	OrigNumFrames
250.00	250.00	9	36	mm	250.0	2140	3423
                Frame#	Time	LPSIS			LASIS			LTH1			LTH2			LTH3			LTH4			LLFE			LMFE			LSH1			LSH2			LSH3			LSH4			LLMAL			LMMAL			LCAL			LMTP5			LTOE			LMTP1			RPSIS			RASIS			RTH1			RTH2			RTH3			RTH4			RLFE			RMFE			RSH1			RSH2			RSH3			RSH4			RLMAL			RMMAL			RCAL			RMTP1			RTOE			RMTP5		
		X1	Y1	Z1	X2	Y2	Z2	X3	Y3	Z3	X4	Y4	Z4	X5	Y5	Z5	X6	Y6	Z6	X7	Y7	Z7	X8	Y8	Z8	X9	Y9	Z9	X10	Y10	Z10	X11	Y11	Z11	X12	Y12	Z12	X13	Y13	Z13	X14	Y14	Z14	X15	Y15	Z15	X16	Y16	Z16	X17	Y17	Z17	X18	Y18	Z18	X19	Y19	Z19	X20	Y20	Z20	X21	Y21	Z21	X22	Y22	Z22	X23	Y23	Z23	X24	Y24	Z24	X25	Y25	Z25	X26	Y26	Z26	X27	Y27	Z27	X28	Y28	Z28	X29	Y29	Z29	X30	Y30	Z30	X31	Y31	Z31	X32	Y32	Z32	X33	Y33	Z33	X34	Y34	Z34	X35	Y35	Z35	X36	Y36	Z36

2140	8.55600	-787.87830	972.52594	278.59744	-960.30225	962.17871	337.71359	-920.08270	709.08990	413.64545	-950.72803	655.54706	401.45886	-975.84436	746.27698	416.39575	-1015.57611	696.50714	401.99768	-1076.92761	492.44409	369.93607	-1084.77856	480.99533	257.16812	-1030.86963	389.28745	380.80685	-1026.36536	340.52542	377.28043	-1084.69141	388.00644	385.80560	-1088.47620	339.10785	381.59006	-1077.78040	92.09636	364.20227	-1073.57190	122.08263	274.87180	-1011.85809	60.85257	313.38156	-1222.32776	58.37174	368.55682	-1241.49951	90.66976	319.98996	-1206.86011	68.99371	272.88470	-783.32629	975.16907	203.93698	-947.46960	949.13269	123.79200	-826.17438	726.75397	63.61601	-823.78076	666.61523	79.44419	-891.48578	729.76849	65.74874	-900.65833	669.79803	81.09310	-852.89410	450.83817	128.51752	-839.83112	454.30243	242.16960	-767.22137	328.52814	114.86642	-763.58533	283.94849	123.17837	-826.42017	317.70038	129.33597	-815.05292	273.39246	131.62007	-738.42114	80.40019	160.35133	-743.00427	89.11723	250.83241	-672.42053	52.58202	202.31012	-866.60242	27.11693	259.55563	-899.17511	44.43277	216.66963	-870.24011	17.92075	153.52000
2141	8.56000	-791.54626	972.09460	278.87720	-964.17584	961.63910	337.55472	-923.74347	708.55475	413.80545	-954.21509	654.98889	401.59860	-979.48212	745.70197	416.52628	-1019.05042	695.72278	402.07199	-1080.17932	491.58026	369.81863	-1088.33826	480.25635	256.86514	-1035.97095	387.55600	380.84686	-1032.47546	338.69119	377.30557	-1089.98267	387.30728	385.56424	-1094.76428	338.32068	381.37286	-1088.95898	90.93581	363.93073	-1083.46887	119.64674	274.94333	-1023.52380	58.59760	313.24350	-1233.23828	60.43504	368.67511	-1252.31409	92.69830	319.31061	-1218.12842	70.79118	272.16864	-786.90155	974.76520	204.22563	-950.97662	948.63007	123.86288	-828.92688	726.67426	63.69662	-826.33112	666.48785	79.50586	-894.31689	729.41742	65.78576	-903.22546	669.39978	81.13969	-854.57379	450.59976	128.61490	-841.82971	454.16547	242.21614	-768.54321	328.68011	115.04398	-764.62384	284.15125	123.25163	-827.65472	317.52963	129.15971	-815.94910	273.26083	131.94305	-738.59985	80.48293	160.42697	-743.08038	89.20487	250.90605	-672.53101	52.84727	202.32860	-868.03198	25.81568	256.15677	-899.24072	44.37411	216.63753	-870.25891	17.92052	153.51883
2142	8.56400	-795.27063	971.65063	279.13376	-967.90814	961.20337	337.62305	-927.30798	708.10345	414.01331	-957.80798	654.35895	401.80237	-983.28210	744.98560	416.60141	-1022.74908	694.93158	402.12762	-1083.78467	490.51160	369.66415	-1091.37671	479.67902	256.58679	-1041.11414	385.82172	380.76343	-1038.50598	336.91638	377.17798	-1095.21558	386.57452	385.31799	-1100.79907	337.61545	380.96936	-1100.07800	89.90788	363.64905	-1093.66431	118.82056	275.14084	-1034.76416	56.75210	313.17282	-1238.85657	62.20174	370.16425	-1264.78821	93.57944	320.58270	-1228.63867	74.57882	269.24182	-790.43604	974.35999	204.53448	-954.56226	948.09485	123.98892	-831.74524	726.54010	63.76360	-828.89807	666.41742	79.58894	-897.06128	729.06506	65.76582	-905.82190	669.02875	81.11474	-856.42755	450.35300	128.68172	-843.96484	454.02014	242.32715	-769.66724	328.90060	115.25600	-765.73627	284.29501	123.39853	-828.77600	317.73410	129.64139	-816.99097	272.90582	132.29916	-738.74774	80.61269	160.48097	-743.20251	89.26315	250.96109	-672.64355	53.11414	202.34966	-868.01752	25.79527	256.14996	-899.28680	44.30745	216.61073	-870.27893	17.87611	153.51503
2143	8.56800	-798.97217	971.17749	279.48022	-971.86890	960.58691	337.66486	-931.00189	707.57117	414.16843	-961.19061	653.77911	401.99146	-986.94501	744.39044	416.77109	-1026.23181	694.23694	402.28763	-1086.93042	489.64255	369.51328	-1094.58411	478.97546	256.38602	-1046.12842	384.15588	380.65683	-1044.57922	335.12909	377.02948	-1100.30457	385.82724	385.09909	-1106.72131	336.92487	380.79691	-1110.84387	89.05929	363.41946	-1103.47351	118.10989	274.93433	-1045.88611	54.89120	313.05148	-1257.05933	63.54701	366.47766	-1275.28369	95.58521	320.00238	-1239.46460	76.46218	268.75400	-794.08667	973.90625	204.86189	-957.96259	947.53979	124.05678	-834.59180	726.40082	63.88380	-831.52753	666.29590	79.68246	-899.99420	728.64624	65.85614	-908.53149	668.58594	81.15826	-858.44104	450.10367	128.75029	-846.02899	453.79303	242.44295	-771.10187	329.06058	115.40802	-766.73236	284.50125	123.55569	-830.25391	317.17172	129.29767	-818.04608	273.07324	131.81325	-738.89996	80.74416	160.51541	-743.29688	89.36999	251.08012	-672.76758	53.41558	202.40945	-868.16016	25.61038	256.43982	-899.35968	44.23644	216.59540	-870.29877	17.85147	153.50861
2144	8.57200	-802.79498	970.72009	279.76486	-975.86658	960.05585	337.49353	-934.59619	707.10315	414.36618	-964.85516	653.09216	402.24216	-990.66663	743.73486	416.85577	-1029.88098	693.30737	402.36502	-1090.36145	488.61105	369.27359	-1097.66846	478.22028	256.01486	-1051.03198	382.50790	380.47141	-1050.34509	333.42459	376.86435	-1105.19910	385.14697	384.82462	-1112.55823	336.30942	380.56522	-1121.01453	88.67165	362.63727	-1113.18555	117.53826	274.79266	-1056.83765	53.25131	313.00809	-1267.83130	65.47075	365.97092	-1285.68726	97.73013	319.60278	-1250.18518	78.57166	267.93335	-797.65576	973.45367	205.11835	-961.54938	946.94196	124.02627	-837.54449	726.23206	63.95910	-834.24036	666.16272	79.79420	-902.98944	728.24042	65.86932	-911.19910	668.14886	81.11311	-860.51929	449.80017	128.82930	-848.21362	453.61395	242.51288	-772.30908	329.27756	115.60688	-767.98035	284.72858	123.64747	-831.50433	317.19736	129.48317	-819.24225	272.87766	131.99162	-739.08167	80.89009	160.53174	-743.51135	89.45664	251.14545	-672.90216	53.73880	202.44849	-868.22974	25.59882	256.40649	-899.42926	44.16779	216.56975	-870.30640	17.81178	153.48769
2145	8.57600	-806.61725	970.21869	280.06567	-979.68573	959.61102	337.53876	-938.30292	706.55469	414.55130	-968.31152	652.50995	402.53867	-994.41968	743.07037	416.95279	-1033.41589	692.54150	402.52289	-1093.55432	487.59616	369.24088	-1100.89575	477.45392	255.68198	-1055.97620	380.79614	380.22839	-1056.17200	331.76740	376.58002	-1109.96216	384.48361	384.56836	-1118.17566	335.59888	380.26974	-1131.25195	88.08525	362.41379	-1122.51794	117.00223	274.52872	-1067.79370	51.53893	312.64798	-1278.44482	67.43671	365.50070	-1295.48853	99.72454	319.02969	-1260.00244	80.35050	267.99792	-801.22729	972.97711	205.41231	-964.97882	946.49658	123.90768	-840.51593	726.05243	64.07309	-837.12256	665.97144	79.95981	-905.84039	727.88074	65.87778	-914.01337	667.63452	81.18819	-862.61200	449.46640	129.00182	-850.57916	453.36523	242.67281	-773.85260	329.37369	115.81407	-769.08197	284.89908	123.88066	-833.00446	316.45029	129.45326	-820.34003	272.73428	132.00677	-739.26630	81.05789	160.55504	-743.73706	89.60779	251.25014	-673.02472	54.02099	202.48143	-868.23969	25.57995	256.38678	-899.50879	44.08451	216.53214	-870.33844	17.78502	153.45653
2146	8.58000	-810.44269	969.70673	280.29108	-983.53918	959.11542	337.49609	-941.98889	705.96344	414.68851	-971.92358	651.85443	402.67786	-998.06329	742.41266	417.08994	-1037.09485	691.70190	402.62564	-1096.75000	486.43182	369.00656	-1104.07117	476.61838	255.37163	-1060.63513	379.22815	379.96368	-1061.66028	330.13300	376.34277	-1114.64514	383.74911	384.29581	-1123.62488	334.98682	380.06512	-1141.18066	87.60315	362.15408	-1133.61340	115.91227	275.74557	-1077.88342	50.31248	312.89020	-1288.73560	69.27966	365.09662	-1305.06323	101.77670	318.69257	-1269.94580	82.18319	267.59930	-804.94012	972.49304	205.72917	-968.69733	946.01013	123.84753	-843.47247	725.84424	64.18601	-839.89386	665.76208	80.11382	-908.90045	727.28790	65.95235	-916.72974	667.16113	81.18236	-864.72278	449.16071	129.15321	-852.99536	453.08508	242.80350	-775.26257	329.55972	116.02157	-770.55194	285.05472	124.04887	-834.48236	316.47528	129.56137	-821.57837	272.54810	132.15587	-739.48315	81.22009	160.56256	-743.93982	89.76286	251.38312	-673.13464	54.34368	202.50743	-868.28503	25.55526	256.36499	-899.61316	43.99781	216.50296	-870.36414	17.74144	153.43170
2147	8.58400	-814.19238	969.17065	280.60110	-987.78265	959.33661	338.55795	-945.60413	705.39172	414.85162	-975.27966	651.30298	402.79062	-1001.92249	741.65515	417.12997	-1040.72021	690.85760	402.69669	-1099.84021	485.36868	368.94009	-1107.05383	475.72345	255.04802	-1065.16174	377.72678	379.84750	-1067.30383	328.48447	375.98297	-1119.16443	382.99405	384.01691	-1128.99487	334.34796	379.74460	-1150.87415	87.18689	361.86621	-1142.54724	115.55145	275.54810	-1088.01843	48.98142	312.71307	-1298.83105	71.16177	364.56845	-1314.73938	103.96927	318.38327	-1279.41260	83.96912	267.35754	-808.70380	971.93616	206.02559	-972.24524	945.46600	123.90624	-846.52344	725.54462	64.36620	-842.68311	665.54559	80.34313	-911.88727	726.76807	65.99634	-917.58795	667.55902	79.73010	-866.88403	448.82742	129.32442	-855.43231	452.70172	242.88945	-776.74762	329.69092	116.24270	-771.77698	285.18146	124.18408	-835.92651	316.33493	129.65515	-822.74225	272.42642	132.21906	-739.65619	81.47504	160.57657	-744.15363	89.93078	251.48302	-673.30658	54.69132	202.56686	-868.30640	25.53337	256.32358	-899.70221	43.88575	216.48355	-870.35803	17.70328	153.39761
2148	8.58800	-818.11505	968.61444	280.83929	-991.80457	958.88226	338.42093	-949.32861	704.75647	414.91388	-979.06152	650.58282	402.92310	-1005.71387	740.89331	417.20554	-1044.25940	690.08710	402.85104	-1102.87769	484.34464	368.88385	-1110.16113	474.73560	254.80890	-1069.27576	376.37332	379.80176	-1072.55103	326.97394	375.73410	-1123.68274	382.28333	383.77298	-1134.28625	333.65195	379.43982	-1160.28247	86.79013	361.56735	-1151.54578	115.18034	275.05414	-1097.88208	47.81384	312.51489	-1308.36047	73.03972	364.21286	-1323.54810	105.95568	317.99664	-1288.71362	85.87364	267.12021	-812.34869	971.39307	206.30658	-976.14209	944.71948	124.27095	-849.56158	725.27454	64.59177	-845.55005	665.28021	80.61827	-914.96619	726.27808	66.06320	-922.49963	666.14172	81.46530	-869.69916	448.66980	128.78271	-858.03320	452.33878	242.94539	-778.31470	329.82956	116.46783	-774.32208	284.88156	123.87553	-837.66113	317.87711	130.41414	-824.17212	272.20258	132.43187	-739.97504	81.71227	160.61560	-744.32306	90.12804	251.60770	-673.45984	55.11609	202.60687	-868.36041	25.48157	256.27219	-899.77057	43.81499	216.44232	-870.37396	17.66022	153.37958
